<?xml version="1.0" encoding="iso-8859-1"?>
<!-- Generator: Adobe Illustrator 18.0.0, SVG Export Plug-In . SVG Version: 6.00 Build 0)  -->
<!DOCTYPE svg PUBLIC "-//W3C//DTD SVG 1.1//EN" "http://www.w3.org/Graphics/SVG/1.1/DTD/svg11.dtd">
<svg version="1.1" id="Capa_1" xmlns="http://www.w3.org/2000/svg" xmlns:xlink="http://www.w3.org/1999/xlink" x="0px" y="0px"
	 viewBox="0 0 58 58" style="enable-background:new 0 0 58 58;" xml:space="preserve">
<rect x="21.5" style="fill:#DC691D;" width="16" height="3"/>
<rect x="21.5" y="55" style="fill:#DC691D;" width="16" height="3"/>
<line style="fill:none;stroke:#F7E6A1;stroke-width:2;stroke-linecap:round;stroke-miterlimit:10;" x1="9.5" y1="31" x2="7.5" y2="33"/>
<line style="fill:none;stroke:#F7E6A1;stroke-width:2;stroke-linecap:round;stroke-miterlimit:10;" x1="8.5" y1="28" x2="5.5" y2="28"/>
<line style="fill:none;stroke:#F7E6A1;stroke-width:2;stroke-linecap:round;stroke-miterlimit:10;" x1="9.5" y1="25" x2="7.379" y2="22.879"/>
<path style="fill:#DC691D;" d="M41.5,29c0-2.874-0.747-5.54-2.022-7.759c-1.267-2.205-1.978-4.683-1.978-7.227V9h-16v5.014
	c0,2.543-0.71,5.022-1.978,7.227C18.247,23.46,17.5,26.126,17.5,29s0.747,5.54,2.022,7.759c1.267,2.205,1.978,4.683,1.978,7.227v0
	V49h16v-5.014c0-2.543,0.71-5.022,1.978-7.227C40.753,34.54,41.5,31.874,41.5,29z"/>
<line style="fill:none;stroke:#F7E6A1;stroke-width:2;stroke-linecap:round;stroke-miterlimit:10;" x1="48.5" y1="24.879" x2="50.5" y2="22.879"/>
<line style="fill:none;stroke:#F7E6A1;stroke-width:2;stroke-linecap:round;stroke-miterlimit:10;" x1="49.5" y1="28" x2="52.5" y2="28"/>
<line style="fill:none;stroke:#F7E6A1;stroke-width:2;stroke-linecap:round;stroke-miterlimit:10;" x1="48.5" y1="30.879" x2="50.621" y2="33"/>
<rect x="18.5" y="3" style="fill:#ED8A19;" width="22" height="6"/>
<rect x="18.5" y="49" style="fill:#ED8A19;" width="22" height="6"/>
<g>
</g>
<g>
</g>
<g>
</g>
<g>
</g>
<g>
</g>
<g>
</g>
<g>
</g>
<g>
</g>
<g>
</g>
<g>
</g>
<g>
</g>
<g>
</g>
<g>
</g>
<g>
</g>
<g>
</g>
</svg>
